<svg xmlns="http://www.w3.org/2000/svg" version="1.1" xmlns:xlink="http://www.w3.org/1999/xlink" xmlns:svgjs="http://svgjs.dev/svgjs" width="2000" height="414" viewBox="0 0 2000 414"><g transform="matrix(1,0,0,1,-1.2121212121206781,-0.3037414692545326)"><svg viewBox="0 0 396 82" data-background-color="#ffffff" preserveAspectRatio="xMidYMid meet" height="414" width="2000" xmlns="http://www.w3.org/2000/svg" xmlns:xlink="http://www.w3.org/1999/xlink"><g id="tight-bounds" transform="matrix(1,0,0,1,0.2399999999998954,0.06016135381369736)"><svg viewBox="0 0 395.52 81.87967729237262" height="81.87967729237262" width="395.52"><g><svg viewBox="0 0 529.7237597649291 109.66224338504934" height="81.87967729237262" width="395.52"><g><rect width="9.8402530148248" height="109.66224338504934" x="98.60368210396612" y="0" fill="#2a160c" opacity="1" stroke-width="0" stroke="transparent" fill-opacity="1" class="rect-yte-0" data-fill-palette-color="primary" rx="1%" id="yte-0" data-palette-color="#2a160c"></rect></g><g transform="matrix(1,0,0,1,134.20375976492915,0.27279165021155904)"><svg viewBox="0 0 395.52000000000004 109.11666008462622" height="109.11666008462622" width="395.52000000000004"><g id="textblocktransform"><svg viewBox="0 0 395.52000000000004 109.11666008462622" height="109.11666008462622" width="395.52000000000004" id="textblock"><g><svg viewBox="0 0 395.52000000000004 109.11666008462622" height="109.11666008462622" width="395.52000000000004"><g transform="matrix(1,0,0,1,0,0)"><svg width="395.52000000000004" viewBox="3.8 -36.75 177.23 48.900000000000006" height="109.11666008462622" data-palette-color="#2a160c"><path d="M3.8 0L3.8-36.75 9.05-36.75 9.05-22.95 8.85-18.7Q9.8-20.8 11.9-22.18 14-23.55 16.8-23.55L16.8-23.55Q20.35-23.55 22.25-22.08 24.15-20.6 24.8-17.95 25.45-15.3 25.45-11.05L25.45-11.05 25.45 0 20.1 0 20.1-11.1Q20.1-14 19.78-15.65 19.45-17.3 18.48-18.15 17.5-19 15.65-19L15.65-19Q14.15-19 12.63-18.1 11.1-17.2 10.1-15.48 9.1-13.75 9.1-11.4L9.1-11.4 9.1 0 3.8 0ZM43 0.5Q39.45 0.5 36.7-1.1 33.95-2.7 32.45-5.45 30.95-8.2 30.95-11.55L30.95-11.55Q30.95-14.85 32.42-17.6 33.9-20.35 36.65-21.95 39.4-23.55 43-23.55L43-23.55Q46.6-23.55 49.32-21.95 52.05-20.35 53.52-17.6 55-14.85 55-11.55L55-11.55Q55-8.2 53.5-5.45 52-2.7 49.27-1.1 46.55 0.5 43 0.5L43 0.5ZM43.15-3.9Q46.05-3.9 47.72-6.05 49.4-8.2 49.4-11.45L49.4-11.45Q49.4-14.7 47.6-16.93 45.8-19.15 42.85-19.15L42.85-19.15Q40-19.15 38.27-16.95 36.55-14.75 36.55-11.45L36.55-11.45Q36.55-8.25 38.4-6.08 40.25-3.9 43.15-3.9L43.15-3.9ZM68.65 0.5Q66.25 0.5 63.67-0.13 61.1-0.75 60-1.6L60-1.6 61.8-5.85Q64.8-3.75 68.65-3.75L68.65-3.75Q72.5-3.75 72.5-6L72.5-6Q72.5-7 71.7-7.55 70.9-8.1 68.85-8.85L68.85-8.85 66.95-9.55Q63.95-10.75 62.2-12.43 60.45-14.1 60.45-16.85L60.45-16.85Q60.45-20 62.92-21.78 65.4-23.55 69.55-23.55L69.55-23.55Q71.6-23.55 73.57-23.1 75.55-22.65 76.6-21.95L76.6-21.95 74.65-17.65Q74-18.3 72.57-18.78 71.15-19.25 69.4-19.25L69.4-19.25Q65.85-19.25 65.85-17.1L65.85-17.1Q65.85-15.9 66.8-15.28 67.75-14.65 69.9-13.9L69.9-13.9Q70.1-13.85 71.45-13.35L71.45-13.35Q74.65-12.1 76.2-10.5 77.75-8.9 77.75-6.4L77.75-6.4Q77.75-3 75.17-1.25 72.6 0.5 68.65 0.5L68.65 0.5ZM83.44 12.15L83.44-22.95 88.64-22.95 88.64-18.7Q91.39-23.55 97.24-23.55L97.24-23.55Q102.09-23.55 105.09-20.48 108.09-17.4 108.09-11.6L108.09-11.6Q108.09-8 106.62-5.25 105.14-2.5 102.62-1 100.09 0.5 96.99 0.5L96.99 0.5Q94.09 0.5 91.97-0.53 89.84-1.55 88.64-3.45L88.64-3.45 88.69 12.15 83.44 12.15ZM95.74-4.05Q98.99-4.05 100.74-6.13 102.49-8.2 102.49-11.45L102.49-11.45Q102.49-14.85 100.77-16.88 99.04-18.9 95.74-18.9L95.74-18.9Q93.94-18.9 92.37-18.03 90.79-17.15 89.87-15.53 88.94-13.9 88.94-11.75L88.94-11.75 88.94-11.4Q88.94-9.25 89.87-7.58 90.79-5.9 92.34-4.98 93.89-4.05 95.74-4.05L95.74-4.05ZM114.24 0L114.24-22.95 119.84-22.95 119.84 0 114.24 0ZM116.99-27.25Q115.44-27.25 114.39-28.3 113.34-29.35 113.34-30.9L113.34-30.9Q113.34-32.3 114.39-33.3 115.44-34.3 116.99-34.3L116.99-34.3Q118.49-34.3 119.54-33.3 120.59-32.3 120.59-30.9L120.59-30.9Q120.59-29.35 119.57-28.3 118.54-27.25 116.99-27.25L116.99-27.25ZM129.34 0L129.34-18.55 125.29-18.55 125.29-22.95 129.34-22.95 129.34-32.3 134.79-33.5 134.79-22.95 140.09-22.95 140.09-18.55 134.79-18.55 134.79 0 129.34 0ZM154.64 0.5Q151.54 0.5 148.91-0.98 146.29-2.45 144.71-5.18 143.14-7.9 143.14-11.55L143.14-11.55Q143.14-15.15 144.51-17.85 145.89-20.55 148.44-22.05 150.99-23.55 154.44-23.55L154.44-23.55Q156.44-23.55 158.19-22.85 159.94-22.15 161.14-21.13 162.34-20.1 162.74-19.1L162.74-19.1 162.84-22.95 167.99-22.95 167.99 0 162.89 0 162.79-4.05Q161.94-2.25 159.69-0.88 157.44 0.5 154.64 0.5L154.64 0.5ZM155.54-4Q158.39-4 160.34-5.98 162.29-7.95 162.29-11.15L162.29-11.15 162.29-11.5Q162.29-13.65 161.39-15.35 160.49-17.05 158.94-18 157.39-18.95 155.54-18.95L155.54-18.95Q152.34-18.95 150.59-16.88 148.84-14.8 148.84-11.5L148.84-11.5Q148.84-8.15 150.56-6.08 152.29-4 155.54-4L155.54-4ZM175.68 0L175.68-36.75 181.03-36.75 181.03 0 175.68 0Z" opacity="1" transform="matrix(1,0,0,1,0,0)" fill="#2a160c" class="wordmark-text-0" data-fill-palette-color="primary" id="text-0"></path></svg></g></svg></g></svg></g></svg></g><g transform="matrix(1,0,0,1,0,0.27279165021156615)"><svg viewBox="0 0 72.84385745782791 109.1166600846262" height="109.1166600846262" width="72.84385745782791"><g><svg xmlns="http://www.w3.org/2000/svg" xmlns:xlink="http://www.w3.org/1999/xlink" version="1.1" x="0" y="0" viewBox="19.959 5 60.081999999999994 90" enable-background="new 0 0 100 100" xml:space="preserve" height="109.1166600846262" width="72.84385745782791" class="icon-icon-0" data-fill-palette-color="accent" id="icon-0"><path d="M80.041 8.592V5H19.959V8.592H23.552V91.408H19.959V95H80.041V91.408H76.45V8.592zM33.764 87.871H28.469V82.576H33.764zM33.764 79.22H28.469V73.926H33.764zM33.764 70.57H28.469V65.273H33.764zM33.764 61.917H28.469V56.623H33.764zM33.764 53.268H28.469V47.974H33.764zM33.764 44.617H28.469V39.321H33.764zM33.764 35.966H28.469V30.67H33.764zM43.208 87.871H37.913V82.576H43.208zM43.208 79.22H37.913V73.926H43.208zM43.208 70.57H37.913V65.273H43.208zM43.208 61.917H37.913V56.623H43.208zM43.208 53.268H37.913V47.974H43.208zM43.208 44.617H37.913V39.321H43.208zM43.208 35.966H37.913V30.67H43.208zM52.65 87.871H47.358V82.576H52.65zM52.65 79.22H47.358V73.926H52.65zM52.65 70.57H47.358V65.273H52.65zM52.65 61.917H47.358V56.623H52.65zM52.65 53.268H47.358V47.974H52.65zM52.65 44.617H47.358V39.321H52.65zM52.65 35.966H47.358V30.67H52.65zM52.65 27.314H47.358V20.602H40.644V15.307H47.358V8.592H52.65V15.307H59.364V20.602H52.65zM62.098 87.871H56.803V82.576H62.098zM62.098 79.22H56.803V73.926H62.098zM62.098 70.57H56.803V65.273H62.098zM62.098 61.917H56.803V56.623H62.098zM62.098 53.268H56.803V47.974H62.098zM62.098 44.617H56.803V39.321H62.098zM62.098 35.966H56.803V30.67H62.098zM71.54 87.871H66.246V82.576H71.54zM71.54 79.22H66.246V73.926H71.54zM71.54 70.57H66.246V65.273H71.54zM71.54 61.917H66.246V56.623H71.54zM71.54 53.268H66.246V47.974H71.54zM71.54 44.617H66.246V39.321H71.54zM71.54 35.966H66.246V30.67H71.54z" fill="#99592a" data-fill-palette-color="accent"></path></svg></g></svg></g></svg></g><defs></defs></svg><rect width="395.52" height="81.87967729237262" fill="none" stroke="none" visibility="hidden"></rect></g></svg></g></svg>